<?xml version="1.0" encoding="UTF-8" standalone="no"?>
<svg
   xmlns:dc="http://purl.org/dc/elements/1.1/"
   xmlns:cc="http://creativecommons.org/ns#"
   xmlns:rdf="http://www.w3.org/1999/02/22-rdf-syntax-ns#"
   xmlns:svg="http://www.w3.org/2000/svg"
   xmlns="http://www.w3.org/2000/svg"
   xmlns:sodipodi="http://sodipodi.sourceforge.net/DTD/sodipodi-0.dtd"
   xmlns:inkscape="http://www.inkscape.org/namespaces/inkscape"
   width="11012.077"
   height="602.89673"
   viewBox="0 0 2913.612 159.51643"
   version="1.1"
   id="svg8"
   inkscape:version="1.0 (4035a4fb49, 2020-05-01)"
   sodipodi:docname="droite-e.svg">
  <defs
     id="defs2" />
  <sodipodi:namedview
     inkscape:window-maximized="0"
     inkscape:window-y="0"
     inkscape:window-x="224"
     inkscape:window-height="1030"
     inkscape:window-width="1635"
     showgrid="false"
     inkscape:document-rotation="0"
     inkscape:current-layer="layer1"
     inkscape:document-units="px"
     inkscape:cy="960.1592"
     inkscape:cx="1847.6351"
     inkscape:zoom="0.0875"
     inkscape:pageshadow="2"
     inkscape:pageopacity="0.0"
     borderopacity="1.0"
     bordercolor="#666666"
     pagecolor="#ffffff"
     id="base"
     units="px" />
  <metadata
     id="metadata5">
    <rdf:RDF>
      <cc:Work
         rdf:about="">
        <dc:format>image/svg+xml</dc:format>
        <dc:type
           rdf:resource="http://purl.org/dc/dcmitype/StillImage" />
        <dc:title></dc:title>
      </cc:Work>
    </rdf:RDF>
  </metadata>
  <g
     id="layer1"
     inkscape:groupmode="layer"
     inkscape:label="Calque 1"
     transform="translate(1245.0536,107.38737)">
    <path
       sodipodi:nodetypes="cccc"
       d="M 1668.5585,-28.040923 -624.39233,-107.38737 c -853.25157,93.269671 -802.26977,65.390659 2.5706,159.516427 z"
       style="opacity:0.064;fill:#fe8c12;fill-rule:evenodd;stroke-width:0.618059;fill-opacity:1"
       id="rect19" />
    <path
       style="opacity:0.064;fill:#fe8c12;fill-rule:evenodd;stroke-width:2.27414;fill-opacity:1"
       d="m -683.95303,44.491709 c -32.6093,-3.865063 -138.6796,-15.826243 -235.7119,-26.580378 -254.06747,-28.158444 -309.21137,-35.667106 -322.25647,-43.879976 -4.1567,-2.616956 -3.9558,-3.175832 2.2784,-6.335829 18.2196,-9.235325 76.8623,-16.830291 377.82147,-48.932643 87.4881,-9.332101 177.2901,-18.926693 199.5598,-21.321343 36.9894,-3.97748 44.1164,-4.21685 82.4268,-2.76845 23.0651,0.87202 356.89393,12.460165 741.84187,25.75143 384.94792,13.291278 745.45718,25.763445 801.13132,27.715971 55.67424,1.952509 230.07234,7.9961 387.55084,13.430153 157.4791,5.434048 287.3392,10.075899 288.5788,10.315201 2.275,0.439171 -77.1729,3.242542 -1455.56969,51.361092 -419.14787,14.632052 -772.49884,26.979151 -785.22444,27.437949 -18.8255,0.678775 -34.1863,-0.475366 -82.4268,-6.193177 z"
       id="path8" />
    <path
       style="opacity:0.064;fill:#fe8c12;fill-rule:evenodd;stroke-width:2.27414;fill-opacity:1"
       d="m -866.15983,23.367436 c -300.57217,-34.064941 -341.23017,-39.219463 -364.23037,-46.17613 -29.7252,-8.990756 4.6031,-17.043238 138.6411,-32.521423 76.7307,-8.860543 420.29057,-45.805273 452.34917,-48.643383 20.5145,-1.81611 72.28497,-0.37283 418.19423,11.658684 217.1297423,7.552243 603.66836,20.95208 858.97474,29.777445 700.06376,24.199603 978.67276,34.02505 979.51136,34.543542 0.4169,0.257731 -37.9212,1.817761 -85.1959,3.466705 -215.4824,7.516023 -1843.41381,64.452132 -1979.66793,69.237905 -83.94509,2.948479 -160.0815,5.289334 -169.192,5.201904 -9.1106,-0.08759 -121.3335,-12.032776 -249.3844,-26.545249 z"
       id="path10" />
    <path
       style="opacity:0.064;fill:#fe8c12;fill-rule:evenodd;stroke-width:2.27414;fill-opacity:1"
       d="m -640.57053,47.032643 c -69.9055,-6.63657 -384.83717,-42.0924274 -497.14377,-55.9697637 -108.2919,-13.3812643 -123.4974,-19.4853753 -72.9984,-29.3045673 39.9002,-7.758328 163.1664,-22.048174 473.25447,-54.862858 l 104.1182,-11.018174 56.3973,1.06641 c 55.43968,1.0483 168.68427,4.829026 785.22441,26.215032 1242.81712,43.109818 1383.50692,48.062568 1388.02912,48.86322 1.4734,0.26091 -24.556,1.434447 -57.8435,2.607897 -477.5514,16.8347002 -2016.83437,70.418687 -2063.35095,71.827343 -34.19991,1.035673 -68.68908,2.113932 -76.64258,2.396188 -7.9534,0.282228 -25.5233,-0.537091 -39.0443,-1.820727 z"
       id="path12" />
    <path
       style="opacity:0.064;fill:#fe8c12;fill-rule:evenodd;stroke-width:2.27414;fill-opacity:1"
       d="m -634.78613,47.185146 c -3.9767,-0.479172 -52.1314,-5.712355 -107.0103,-11.629306 -54.879,-5.916936 -155.0927,-17.096929 -222.6972,-24.844402 -247.80087,-28.397949 -280.41487,-33.476865 -269.09997,-41.906329 10.4423,-7.779334 106.5518,-19.769471 467.21367,-58.287313 l 135.9321,-14.517196 43.3825,1.13073 c 92.88546,2.42101 494.328972,15.98214 1165.5449,39.373157 125.66474,4.379259 322.18779,11.215207 436.71793,15.190996 543.4365,18.864851 596.4047,20.896255 556.7428,21.351801 -7.1581,0.08235 -33.8383,0.949112 -59.2895,1.926455 -25.4509,0.977325 -334.552,11.823956 -686.89065,24.10361641 C -607.85173,49.041386 -616.90523,49.339603 -634.78613,47.185146 Z"
       id="path14" />
    <path
       style="opacity:0.064;fill:#fe8c12;fill-rule:evenodd;stroke-width:2.27414;fill-opacity:1"
       d="m -672.38433,42.72644 c -16.7023,-1.887626 -63.5555,-7.085201 -104.1182,-11.550222 -220.0212,-24.2191335 -388.46007,-44.278747 -427.93967,-50.963825 -22.64,-3.833644 -29.0233,-5.975662 -29.0233,-9.73933 0,-7.196735 83.6309,-17.998061 421.08917,-54.385639 l 182.4852,-19.677034 59.01111,1.73297 c 249.81708,7.336352 2125.69372,72.267167 2137.03612,73.970442 2.386,0.358295 -0.5106,0.744814 -6.4372,0.858887 -5.9263,0.114087 -170.5635,5.827078 -365.8598,12.695493 C 775.99166,0.36429302 264.55655,18.17924 -63.582378,29.468994 -624.62413,48.771858 -619.81843,48.667209 -672.38433,42.72644 Z"
       id="path16" />
    <path
       style="opacity:0.064;fill:#fe8c12;fill-rule:evenodd;stroke-width:2.27414;fill-opacity:1"
       d="m -634.78613,44.502785 c -26.4639,-1.05795 -94.4486,-8.296257 -310.9084,-33.102225 -114.80547,-13.1565287 -235.49397,-28.024646 -258.30717,-31.821923 -8.4507,-1.406613 -18.7628,-3.93401 -22.9158,-5.616451 -6.9853,-2.829835 -7.1742,-3.229197 -2.5218,-5.332541 15.0849,-6.819861 94.6663,-16.715458 406.66207,-50.566704 l 195.2215,-21.181351 99.7799,3.183137 c 300.93995,9.600494 1693.09763,57.6048 1965.21543,67.764422 52.4845,1.959539 100.6393,3.69158 107.0102,3.848974 9.1885,0.227096 9.7897,0.414036 2.9071,0.904539 -4.7721,0.340091 -367.2336,13.076062 -805.46966,28.30214193 C -579.23323,46.785851 -578.36543,46.758354 -634.78613,44.502785 Z"
       id="path18" />
    <path
       style="opacity:0.064;fill:#fe8c12;fill-rule:evenodd;stroke-width:2.27414;fill-opacity:1"
       d="m -670.93833,41.136763 c -82.1897,-7.704089 -400.39417,-44.4527215 -503.56137,-58.155068 -34.4601,-4.576892 -56.0736,-9.154147 -56.0736,-11.87513 0,-6.520816 77.9212,-16.50816 417.91867,-53.565562 l 185.0989,-20.174523 176.42244,5.781276 c 447.2450023,14.656111 1953.69119,66.782344 1985.47559,68.701657 13.3507,0.806224 -1741.20186,61.896713 -2014.39731,70.137796 -112.45162,3.39219 -147.27662,3.23705 -190.88332,-0.850446 z"
       id="path20" />
    <path
       style="opacity:0.064;fill:#fe8c12;fill-rule:evenodd;stroke-width:2.27414;fill-opacity:1"
       d="m -639.12443,42.823265 c -32.2626,-1.703291 -79.308,-6.621815 -248.7267,-26.003969 -153.18647,-17.52512287 -284.37587,-33.514138 -309.46217,-37.716423 -24.2433,-4.061061 -35.2582,-7.609768 -30.0659,-9.686458 16.7409,-6.695693 91.6001,-15.89051 450.87667,-55.38043 l 148.9468,-16.371485 196.66764,6.536285 c 584.00887,19.409675 1884.15119,64.497803 1924.73989,66.7488 28.4282,1.576588 54.4835,0.519653 -474.3161,19.2409356 C 335.29094,14.415095 -404.44983,39.574234 -529.2219,42.864917 c -74.95713,1.976882 -71.64473,1.978135 -109.90253,-0.04155 z"
       id="path22" />
    <path
       style="opacity:0.064;fill:#fe8c12;fill-rule:evenodd;stroke-width:2.27414;fill-opacity:1"
       d="m -676.72263,39.348595 c -83.9868,-7.872538 -416.98957,-46.5022145 -496.00727,-57.538876 -39.4827,-5.514687 -56.3872,-9.322739 -53.6299,-12.081189 4.9252,-4.927074 93.175,-15.727641 454.12877,-55.579136 134.833,-14.886384 149.5407,-16.185674 172.0841,-15.202014 13.5577,0.59158 180.17678,6.276837 370.26475,12.63386 385.63751,12.896774 979.27884,33.289894 1404.14888,48.236161 265.3579,9.334896 340.0114,12.524373 308.0163,13.159653 -7.158,0.142154 -31.8862,1.047779 -54.9511,2.012569 -54.9628,2.299045 -715.81001,25.62023974 -1112.03991,39.243691 -910.34872,31.300271 -922.69602,31.612865 -992.01462,25.115281 z"
       id="path24" />
    <path
       style="opacity:0.064;fill:#fe8c12;fill-rule:evenodd;stroke-width:2.27414;fill-opacity:1"
       d="m -637.67833,41.795069 c -37.2275,-2.029914 -210.4606,-20.954602 -399.11947,-43.6014675 -156.8512,-18.8286255 -193.032,-24.4002305 -186.1363,-28.6637355 7.1119,-4.397154 87.6873,-14.48277 342.31347,-42.847284 212.8693,-23.712982 244.3398,-26.817812 271.8092,-26.816102 38.38663,0.002 1693.84003,56.523679 1992.76063,68.037866 87.6301,3.37543 112.6669,4.792069 90.7457,5.13461 -4.9692,0.07759 -97.3741,3.34038 -205.3445,7.250556 -382.53429,13.8535036 -1286.726948,45.190601 -1546.95346,53.61361 -210.1099,6.800816 -331.35217,9.458139 -360.07527,7.891947 z"
       id="path26" />
    <path
       style="opacity:0.064;fill:#fe8c12;fill-rule:evenodd;stroke-width:2.27414;fill-opacity:1"
       d="m -720.10513,33.972383 c -183.5988,-19.856711 -437.41037,-50.244111 -479.49687,-57.407457 -12.3936,-2.109442 -22.0815,-4.674543 -21.5285,-5.700216 2.5298,-4.692455 65.1652,-12.85404 305.80377,-39.847126 282.3426,-31.671144 265.0664,-30.034908 315.2466,-29.856732 24.65579,0.08757 70.20748,1.050046 101.22602,2.138943 31.01854,1.088897 222.98637,7.608641 426.595162,14.488315 357.390878,12.075792 879.581308,30.01016 1197.358848,41.122686 175.0753,6.122282 339.2333,12.329059 345.6145,13.067605 2.386,0.27615 -11.9303,1.094098 -31.814,1.817682 -420.5939,15.305942 -1456.733578,51.281433 -1785.91555,62.008246 -62.03705,2.02155 -156.39413,4.055079 -209.68239,4.51896 l -96.88769,0.84337 z"
       id="path28" />
    <path
       style="opacity:0.064;fill:#fe8c12;fill-rule:evenodd;stroke-width:2.27414;fill-opacity:1"
       d="m -733.11993,32.124317 c -198.5815,-21.954603 -446.13157,-51.923887 -469.28447,-56.813229 -7.8786,-1.663778 -14.5113,-3.794327 -14.7394,-4.734584 -0.9191,-3.788821 69.3977,-12.840982 311.93967,-40.157278 233.8792,-26.340615 259.3735,-28.766065 302.365,-28.766065 41.22396,0 132.7172,2.917779 730.14004,23.284717 1118.05569,38.116017 1365.59669,47.078414 1325.79619,48.001396 -5.7128,0.132499 -53.8674,1.834977 -107.0105,3.783359 -243.525,8.928365 -1124.08485,39.569282 -1489.20374,51.820001 -238.63354,8.006767 -322.70147,10.235579 -433.82559,11.50162 l -76.6425,0.873185 z"
       id="path30" />
    <path
       style="opacity:0.064;fill:#fe8c12;fill-rule:evenodd;stroke-width:2.27414;fill-opacity:1"
       d="m -666.60003,39.030067 c -7.1581,-0.814937 -56.6142,-6.344381 -109.9025,-12.287643 -206.8712,-23.0724374 -413.33437,-48.38013 -430.16797,-52.728809 -5.422,-1.400676 -9.1024,-3.302871 -8.1786,-4.227071 3.5205,-3.521845 92.3621,-14.600191 337.69507,-42.10977 83.1955,-9.328849 168.1837,-18.791196 188.8627,-21.02748 67.3033,-7.278324 38.001,-8.054324 1197.35882,31.709181 658.60181,22.58863 938.99801,32.739459 941.15211,34.071364 0.6675,0.412657 -2.3363,0.750292 -6.675,0.750292 -4.3387,0 -201.4042,6.8286 -437.9229,15.17468 C 560.99524,4.0444012 69.689342,21.0143 -209.63699,30.330309 c -240.51688,8.02165 -431.05654,11.649172 -456.96304,8.699758 z"
       id="path32" />
  </g>
</svg>
