<?xml version="1.0" encoding="UTF-8" standalone="no"?>
<svg
   xmlns:dc="http://purl.org/dc/elements/1.1/"
   xmlns:cc="http://creativecommons.org/ns#"
   xmlns:rdf="http://www.w3.org/1999/02/22-rdf-syntax-ns#"
   xmlns:svg="http://www.w3.org/2000/svg"
   xmlns="http://www.w3.org/2000/svg"
   xmlns:sodipodi="http://sodipodi.sourceforge.net/DTD/sodipodi-0.dtd"
   xmlns:inkscape="http://www.inkscape.org/namespaces/inkscape"
   inkscape:version="1.0 (4035a4fb49, 2020-05-01)"
   sodipodi:docname="dessind1.svg"
   id="svg47"
   version="1.1"
   viewBox="0 0 686.74828 21.897408"
   height="82.761856"
   width="2595.584">
  <defs
     id="defs41">
    <inkscape:path-effect
       end_linecap_type="zerowidth"
       scale_width="1"
       miter_limit="4"
       linejoin_type="extrp_arc"
       start_linecap_type="zerowidth"
       interpolator_beta="0.2"
       interpolator_type="CubicBezierJohan"
       sort_points="true"
       offset_points="0,0.1322915"
       lpeversion="1"
       is_visible="true"
       id="path-effect190"
       effect="powerstroke" />
    <inkscape:path-effect
       end_linecap_type="zerowidth"
       scale_width="1"
       miter_limit="4"
       linejoin_type="extrp_arc"
       start_linecap_type="zerowidth"
       interpolator_beta="0.2"
       interpolator_type="CubicBezierJohan"
       sort_points="true"
       offset_points="0,0.1322915"
       lpeversion="1"
       is_visible="true"
       id="path-effect186"
       effect="powerstroke" />
    <inkscape:path-effect
       end_linecap_type="zerowidth"
       scale_width="1"
       miter_limit="4"
       linejoin_type="extrp_arc"
       start_linecap_type="zerowidth"
       interpolator_beta="0.2"
       interpolator_type="CubicBezierJohan"
       sort_points="true"
       offset_points="0,0.1322915"
       lpeversion="1"
       is_visible="true"
       id="path-effect182"
       effect="powerstroke" />
    <inkscape:path-effect
       end_linecap_type="zerowidth"
       scale_width="1"
       miter_limit="4"
       linejoin_type="extrp_arc"
       start_linecap_type="zerowidth"
       interpolator_beta="0.2"
       interpolator_type="CubicBezierJohan"
       sort_points="true"
       offset_points="0,0.1322915"
       lpeversion="1"
       is_visible="true"
       id="path-effect176"
       effect="powerstroke" />
    <inkscape:path-effect
       end_linecap_type="zerowidth"
       scale_width="1"
       miter_limit="4"
       linejoin_type="extrp_arc"
       start_linecap_type="zerowidth"
       interpolator_beta="0.2"
       interpolator_type="CubicBezierJohan"
       sort_points="true"
       offset_points="0,0.1322915"
       lpeversion="1"
       is_visible="true"
       id="path-effect165"
       effect="powerstroke" />
    <inkscape:path-effect
       end_linecap_type="zerowidth"
       scale_width="1"
       miter_limit="4"
       linejoin_type="extrp_arc"
       start_linecap_type="zerowidth"
       interpolator_beta="0.2"
       interpolator_type="CubicBezierJohan"
       sort_points="true"
       offset_points="0,0.1322915"
       lpeversion="1"
       is_visible="true"
       id="path-effect117"
       effect="powerstroke" />
    <inkscape:path-effect
       end_linecap_type="zerowidth"
       scale_width="1"
       miter_limit="4"
       linejoin_type="extrp_arc"
       start_linecap_type="zerowidth"
       interpolator_beta="0.2"
       interpolator_type="CubicBezierJohan"
       sort_points="true"
       offset_points="0,0.1322915"
       lpeversion="1"
       is_visible="true"
       id="path-effect113"
       effect="powerstroke" />
    <inkscape:path-effect
       end_linecap_type="zerowidth"
       scale_width="1"
       miter_limit="4"
       linejoin_type="extrp_arc"
       start_linecap_type="zerowidth"
       interpolator_beta="0.2"
       interpolator_type="CubicBezierJohan"
       sort_points="true"
       offset_points="0,0.1322915"
       lpeversion="1"
       is_visible="true"
       id="path-effect107"
       effect="powerstroke" />
    <inkscape:path-effect
       end_linecap_type="zerowidth"
       scale_width="1"
       miter_limit="4"
       linejoin_type="extrp_arc"
       start_linecap_type="zerowidth"
       interpolator_beta="0.2"
       interpolator_type="CubicBezierJohan"
       sort_points="true"
       offset_points="0,0.1322915"
       lpeversion="1"
       is_visible="true"
       id="path-effect103"
       effect="powerstroke" />
    <inkscape:path-effect
       end_linecap_type="zerowidth"
       scale_width="1"
       miter_limit="4"
       linejoin_type="extrp_arc"
       start_linecap_type="zerowidth"
       interpolator_beta="0.2"
       interpolator_type="CubicBezierJohan"
       sort_points="true"
       offset_points="0,0.1322915"
       lpeversion="1"
       is_visible="true"
       id="path-effect99"
       effect="powerstroke" />
    <inkscape:path-effect
       end_linecap_type="zerowidth"
       scale_width="1"
       miter_limit="4"
       linejoin_type="extrp_arc"
       start_linecap_type="zerowidth"
       interpolator_beta="0.2"
       interpolator_type="CubicBezierJohan"
       sort_points="true"
       offset_points="0,0.1322915"
       lpeversion="1"
       is_visible="true"
       id="path-effect89"
       effect="powerstroke" />
    <inkscape:path-effect
       end_linecap_type="zerowidth"
       scale_width="1"
       miter_limit="4"
       linejoin_type="extrp_arc"
       start_linecap_type="zerowidth"
       interpolator_beta="0.2"
       interpolator_type="CubicBezierJohan"
       sort_points="true"
       offset_points="0,0.1322915"
       lpeversion="1"
       is_visible="true"
       id="path-effect85"
       effect="powerstroke" />
    <inkscape:path-effect
       end_linecap_type="zerowidth"
       scale_width="1"
       miter_limit="4"
       linejoin_type="extrp_arc"
       start_linecap_type="zerowidth"
       interpolator_beta="0.2"
       interpolator_type="CubicBezierJohan"
       sort_points="true"
       offset_points="0,0.1322915"
       lpeversion="1"
       is_visible="true"
       id="path-effect81"
       effect="powerstroke" />
    <inkscape:path-effect
       end_linecap_type="zerowidth"
       scale_width="1"
       miter_limit="4"
       linejoin_type="extrp_arc"
       start_linecap_type="zerowidth"
       interpolator_beta="0.2"
       interpolator_type="CubicBezierJohan"
       sort_points="true"
       offset_points="0,0.1322915"
       lpeversion="1"
       is_visible="true"
       id="path-effect77"
       effect="powerstroke" />
    <inkscape:path-effect
       end_linecap_type="zerowidth"
       scale_width="1"
       miter_limit="4"
       linejoin_type="extrp_arc"
       start_linecap_type="zerowidth"
       interpolator_beta="0.2"
       interpolator_type="CubicBezierJohan"
       sort_points="true"
       offset_points="0,0.1322915"
       lpeversion="1"
       is_visible="true"
       id="path-effect73"
       effect="powerstroke" />
    <inkscape:path-effect
       end_linecap_type="zerowidth"
       scale_width="1"
       miter_limit="4"
       linejoin_type="extrp_arc"
       start_linecap_type="zerowidth"
       interpolator_beta="0.2"
       interpolator_type="CubicBezierJohan"
       sort_points="true"
       offset_points="0,0.1322915"
       lpeversion="1"
       is_visible="true"
       id="path-effect69"
       effect="powerstroke" />
    <inkscape:path-effect
       end_linecap_type="zerowidth"
       scale_width="1"
       miter_limit="4"
       linejoin_type="extrp_arc"
       start_linecap_type="zerowidth"
       interpolator_beta="0.2"
       interpolator_type="CubicBezierJohan"
       sort_points="true"
       offset_points="0,0.1322915"
       lpeversion="1"
       is_visible="true"
       id="path-effect65"
       effect="powerstroke" />
    <inkscape:path-effect
       end_linecap_type="zerowidth"
       scale_width="1"
       miter_limit="4"
       linejoin_type="extrp_arc"
       start_linecap_type="zerowidth"
       interpolator_beta="0.2"
       interpolator_type="CubicBezierJohan"
       sort_points="true"
       offset_points="0,0.1322915"
       lpeversion="1"
       is_visible="true"
       id="path-effect55"
       effect="powerstroke" />
    <inkscape:path-effect
       end_linecap_type="zerowidth"
       scale_width="1"
       miter_limit="4"
       linejoin_type="extrp_arc"
       start_linecap_type="zerowidth"
       interpolator_beta="0.2"
       interpolator_type="CubicBezierJohan"
       sort_points="true"
       offset_points="0,0.1322915"
       lpeversion="1"
       is_visible="true"
       id="path-effect51"
       effect="powerstroke" />
  </defs>
  <sodipodi:namedview
     units="px"
     inkscape:window-maximized="1"
     inkscape:window-y="-9"
     inkscape:window-x="-9"
     inkscape:window-height="1001"
     inkscape:window-width="1920"
     showborder="false"
     showgrid="false"
     inkscape:document-rotation="0"
     inkscape:current-layer="layer1"
     inkscape:document-units="px"
     inkscape:cy="-542.6254"
     inkscape:cx="973.02973"
     inkscape:zoom="0.49497475"
     inkscape:pageshadow="2"
     inkscape:pageopacity="0.0"
     borderopacity="1.0"
     bordercolor="#666666"
     pagecolor="#ffffff"
     id="base" />
  <metadata
     id="metadata44">
    <rdf:RDF>
      <cc:Work
         rdf:about="">
        <dc:format>image/svg+xml</dc:format>
        <dc:type
           rdf:resource="http://purl.org/dc/dcmitype/StillImage" />
        <dc:title></dc:title>
      </cc:Work>
    </rdf:RDF>
  </metadata>
  <g
     transform="translate(147.56398,-0.04003445)"
     id="layer1"
     inkscape:groupmode="layer"
     inkscape:label="Calque 1">
    <path
       d="m 65.65794,0.04164884 c 2.79368,0.01862632 4.56149,0.19811093 8.0366,0.5554489 14.81475,1.52333866 46.34209,2.53649136 89.62258,2.88003446 24.26772,0.1926202 25.17554,0.1748971 43.08745,-0.8229583 39.30044,-2.18940484 56.73105,-2.36908903 91.36072,-0.9410708 31.95164,1.3175841 50.14101,1.6703135 64.60441,1.2519945 6.73977,-0.1949354 18.09742,-0.523793 25.23931,-0.7303834 18.40217,-0.5323054 121.77702,0.2434144 135.55025,1.0170461 5.17912,0.2909094 9.5511,0.2924906 17.70734,0.00638 5.95664,-0.2090051 21.98566,-0.5115077 35.62026,-0.6722848 15.843,-0.1869043 32.45951,-0.6173644 46.0392,-1.192619 24.46332,-1.03629759 51.16101,-1.28398906 55.918,-0.51841894 0.9327,0.15010154 1.54496,0.27092644 1.91197,0.43350554 -0.009,0.2216376 -0.0199,0.4433945 -0.0305,0.6646234 -0.002,-0.0033 -0.003,-0.00696 -0.005,-0.010217 -0.0935,-0.1392405 -0.18595,0.2822239 -0.24858,0.4386131 -0.17477,0.4364637 -0.36905,0.8722086 -0.46163,1.3343542 -0.0585,0.2919605 -0.0825,0.5893959 -0.0953,0.8880799 -0.18221,0.3536629 -0.40342,0.772219 -0.52705,1.0176843 -0.13716,0.2723164 -0.0929,0.7085106 0.0897,1.2302874 -0.0686,0.040796 -0.1387,0.080038 -0.20372,0.1244975 -0.20703,0.1415632 -0.55946,3.1084385 -0.61178,3.5363575 -4.5e-4,0.02792 -0.006,0.06353 -0.009,0.09704 -0.0437,0.106459 -0.0901,0.230108 -0.11587,0.298793 -0.17429,0.464573 -0.36021,0.930819 -0.45354,1.419268 -0.17344,0.907614 -0.0767,1.552625 -0.009,2.431844 -0.62501,-0.304389 -0.0214,-0.08052 -0.48531,1.362446 -0.0194,0.06037 -0.0407,-0.17987 -0.0997,-0.160251 -0.1009,0.03356 -0.15024,0.159722 -0.19437,0.258572 -0.22374,0.50109 -0.50873,0.989584 -0.60555,1.531633 -0.10405,0.582475 0.0101,1.184666 0.0149,1.776799 -0.0547,-0.08232 -0.11796,-0.33455 -0.16447,-0.247079 -0.21371,0.401915 -0.39524,2.411861 -0.42675,2.579965 -0.0238,0.126974 0.0422,-0.495547 -0.0262,-0.3869 -0.41063,0.652325 -0.54212,1.782606 -0.67657,2.486751 -0.006,0.01689 -0.0121,0.03359 -0.0181,0.05044 -1.45984,0.05251 -3.24462,0.06651 -5.63808,0.05938 -4.32961,-0.01291 -11.00927,-0.148654 -14.84344,-0.301985 -5.18317,-0.207301 -6.75483,-0.180138 -6.12776,0.106621 0.57786,0.264277 -0.48222,0.385623 -3.36728,0.385623 -2.31582,0 -11.77654,0.296965 -21.02353,0.659515 -31.85117,1.248793 -114.46489,1.800376 -125.52442,0.838281 -10.34506,-0.899946 -35.58763,-1.258481 -73.67269,-1.046415 -19.80266,0.110266 -40.25508,0.348613 -45.44922,0.529273 -24.1494,0.839961 -68.75168,1.465111 -108.60452,1.522696 -23.37361,0.0338 -61.09007,0.148472 -83.81441,0.254102 -26.50445,0.123213 -53.47833,0.03609 -75.23889,-0.242611 C 74.30418,26.317589 72.43774,26.269455 45.26923,25.095587 8.64107,23.512989 2.87905,23.501931 -126.7467,24.754018 c -5.67682,0.05483 -10.31417,0.06125 -13.49589,0.02618 0,-0.178454 0.0619,-0.364281 0.25356,-0.572048 0.14245,-0.600732 0.30911,-1.19547 0.42735,-1.801698 0.0457,-0.234529 -0.36889,0.703326 -0.25667,0.271979 0.0403,-0.154911 0.16806,-0.271874 0.22615,-0.420737 0.29661,-0.760202 0.60391,-1.518841 0.83606,-2.30224 0.0491,-0.16555 3e-5,-0.346042 0,-0.519058 0,-1.828487 -0.004,-3.657055 0.003,-5.485536 0.003,-1.679488 -0.0144,-3.358583 -0.0144,-5.0379846 0.0656,-1.8454681 0.23017,-3.7547103 -0.17632,-5.5666194 -0.096,-0.453631 -0.268,-1.3571533 0.021,-1.7729673 0.13933,-0.200262 0.39581,-0.3181673 0.48347,-0.5471491 0.0882,-0.23060268 0.16592,-0.46515426 0.23922,-0.70101479 8.02692,0.23022297 34.50738,0.37723496 88.63833,0.49990367 76.7529,0.17392716 87.38712,0.13449608 101.0255,-0.37605404 7.57952,-0.2837384 11.39966,-0.42590933 14.19367,-0.4073292 z M -146.49242,1.2981126 c 0.12146,-0.030094 -0.16434,0.3341956 -0.96815,1.1734655 -0.0433,-0.1232777 -0.0764,-0.2386495 -0.10341,-0.3505074 0.50376,-0.4425552 0.9506,-0.7929919 1.07156,-0.8229581 z"
       style="fill:#3d1319;stroke:none;stroke-width:0.6276"
       id="path178" />
  </g>
</svg>
